<?xml version="1.0" encoding="UTF-8" standalone="no"?>
<svg width="160px" height="55px" viewBox="0 0 160 55" version="1.1" xmlns="http://www.w3.org/2000/svg" xmlns:xlink="http://www.w3.org/1999/xlink" xmlns:sketch="http://www.bohemiancoding.com/sketch/ns">
    <!-- Generator: Sketch 3.2 (9961) - http://www.bohemiancoding.com/sketch -->
    <title>App Store</title>
    <desc>Created with Sketch.</desc>
    <defs></defs>
    <g id="Page-1" stroke="none" stroke-width="1" fill="none" fill-rule="evenodd" sketch:type="MSPage">
        <g id="Artboard-1" sketch:type="MSArtboardGroup" transform="translate(-545.000000, -600.000000)">
            <g id="App-Store" sketch:type="MSLayerGroup" transform="translate(545.000000, 600.000000)">
                <rect id="background" fill="#000000" sketch:type="MSShapeGroup" x="0" y="0" width="160" height="54.761241" rx="8.12457684"></rect>
                <g id="icon" transform="translate(14.190928, 9.637978)" fill="#FFFFFF" sketch:type="MSShapeGroup">
                    <path d="M20.8358312,16.4890729 C20.8009701,12.5719606 24.0081828,10.6662727 24.1548394,10.5775513 C22.3384608,7.90010842 19.5231339,7.5342844 18.5338026,7.50511571 C16.1692647,7.25353574 13.8756508,8.935597 12.6711429,8.935597 C11.442593,8.935597 9.58774701,7.52942296 7.58864858,7.57074527 C5.01614671,7.61085222 2.60953514,9.11668596 1.28962529,11.4550428 C-1.43434165,16.2229086 0.597213573,23.2294716 3.20698067,27.083385 C4.51246526,28.9720579 6.03793484,31.0782805 8.03462905,31.0041434 C9.98804753,30.9239295 10.7177245,29.7450282 13.0750498,29.7450282 C15.4107372,29.7450282 16.0959363,31.0041434 18.1323,30.9555289 C20.2287688,30.9239295 21.5486786,29.0607793 22.8084833,27.1550914 C24.3171234,24.9941775 24.9229837,22.8612168 24.9470257,22.7518342 C24.8989416,22.7360345 20.8767027,21.184017 20.8358312,16.4890729" id="Fill-2"></path>
                    <path d="M16.9890994,4.96987021 C18.039738,3.64147935 18.758596,1.83423579 18.5590468,0.000254263313 C17.0383856,0.0683145453 15.1366576,1.06369617 14.0415411,2.36291834 C13.0726456,3.50778951 12.2071309,5.38430871 12.4307222,7.14901459 C14.1389115,7.27784298 15.8927808,6.27759991 16.9890994,4.96987021" id="Fill-3"></path>
                </g>
                <g transform="translate(49.830738, 23.985424)" fill="#FFFFFF" sketch:type="MSShapeGroup">
                    <path d="M13.4899351,16.3856725 L10.7599576,16.3856725 L9.26454064,11.6348218 L4.06664432,11.6348218 L2.64215146,16.3856725 L-0.0156997834,16.3856725 L5.13531449,0.211632654 L8.31608083,0.211632654 L13.4899351,16.3856725 L13.4899351,16.3856725 Z M8.81375176,9.64162779 L7.46138512,5.41945959 C7.31833478,4.98679065 7.04906355,3.97074787 6.65477354,2.37133124 L6.6066894,2.37133124 C6.44801171,3.05922624 6.19436783,4.07526902 5.84695987,5.41945959 L4.5174332,9.64162779 L8.81375176,9.64162779 L8.81375176,9.64162779 Z" id="Fill-4"></path>
                    <path d="M26.7106714,10.4109521 C26.7106714,12.3944231 26.1781394,13.9622403 25.1118735,15.1131883 C24.1574031,16.1377386 22.9709268,16.6494061 21.5560508,16.6494061 C20.028177,16.6494061 18.9294542,16.098847 18.2622867,14.9940828 L18.2622867,21.1134314 L15.6994016,21.1134314 L15.6994016,8.55630937 C15.6994016,7.31056313 15.6669448,6.03321749 15.6044355,4.72305706 L17.8583799,4.72305706 L18.0014302,6.57283829 L18.0495143,6.57283829 C18.9042101,5.17881787 20.2012799,4.48241535 21.9419261,4.48241535 C23.3027074,4.48241535 24.4386954,5.02568224 25.3474858,6.11343139 C26.2550741,7.20361126 26.7106714,8.63530791 26.7106714,10.4109521 L26.7106714,10.4109521 Z M24.0997022,10.5057503 C24.0997022,9.37060203 23.8472604,8.43477315 23.3399726,7.69826367 C22.7858028,6.93137014 22.0417007,6.54610032 21.1088682,6.54610032 C20.4765617,6.54610032 19.9019561,6.76000407 19.3886578,7.18295011 C18.8741575,7.60711151 18.5375684,8.16253202 18.3800929,8.85164238 C18.300754,9.17128263 18.2610846,9.4325855 18.2610846,9.63919707 L18.2610846,11.5862073 C18.2610846,12.4320994 18.5183348,13.1479477 19.0328352,13.7337522 C19.5473355,14.3171261 20.2157052,14.6100284 21.0379441,14.6100284 C22.0032333,14.6100284 22.7545482,14.2320507 23.2918885,13.4821723 C23.8304309,12.7298631 24.0997022,11.7381275 24.0997022,10.5057503 L24.0997022,10.5057503 Z" id="Fill-5"></path>
                    <path d="M39.9782897,10.4109521 C39.9782897,12.3944231 39.4457578,13.9622403 38.3794918,15.1131883 C37.4238194,16.1377386 36.2385451,16.6494061 34.822467,16.6494061 C33.2957953,16.6494061 32.1970726,16.098847 31.5287029,14.9940828 L31.5287029,21.1134314 L28.9658179,21.1134314 L28.9658179,8.55630937 C28.9658179,7.31056313 28.9333611,6.03321749 28.8708517,4.72305706 L31.1247961,4.72305706 L31.2678464,6.57283829 L31.3159306,6.57283829 C32.1694242,5.17881787 33.4664941,4.48241535 35.2083423,4.48241535 C36.5679216,4.48241535 37.7051116,5.02568224 38.6151041,6.11343139 C39.5214903,7.20361126 39.9782897,8.63530791 39.9782897,10.4109521 L39.9782897,10.4109521 Z M37.3661184,10.5057503 C37.3661184,9.37060203 37.1124745,8.43477315 36.6051868,7.69826367 C36.0522191,6.93137014 35.309319,6.54610032 34.3764865,6.54610032 C33.74418,6.54610032 33.1695744,6.76000407 32.653872,7.18295011 C32.1405737,7.60711151 31.8039847,8.16253202 31.6465091,8.85164238 C31.5683723,9.17128263 31.5262987,9.4325855 31.5262987,9.63919707 L31.5262987,11.5862073 C31.5262987,12.4320994 31.784751,13.1479477 32.2968472,13.7337522 C32.8113475,14.3159107 33.4797172,14.6100284 34.3043603,14.6100284 C35.2708517,14.6100284 36.0221665,14.2320507 36.5583047,13.4821723 C37.0968472,12.7298631 37.3661184,11.7381275 37.3661184,10.5057503 L37.3661184,10.5057503 Z" id="Fill-6"></path>
                    <path d="M54.8122491,11.8499409 C54.8122491,13.2257309 54.3374182,14.3450794 53.3901605,15.2092019 C52.3491387,16.152323 50.8957953,16.6250989 49.0325346,16.6250989 C47.3111222,16.6250989 45.9311071,16.2896589 44.8900853,15.6175636 L45.4827225,13.457865 C46.6066894,14.1299603 47.8412499,14.4666156 49.1852018,14.4666156 C50.1516932,14.4666156 50.903008,14.2454197 51.4391462,13.806674 C51.9776886,13.3654975 52.248162,12.7784776 52.248162,12.0443988 C52.248162,11.3868879 52.0245707,10.8351135 51.5821965,10.3866448 C51.1386203,9.94060689 50.405337,9.5225223 49.3763363,9.14089857 C46.5754347,8.08474884 45.1737818,6.53880815 45.1737818,4.50793795 C45.1737818,3.18076245 45.6690485,2.09422867 46.6559756,1.2446905 C47.6441049,0.396367705 48.9543979,-0.0277936955 50.5844505,-0.0277936955 C52.040198,-0.0277936955 53.2531207,0.228647724 54.2160057,0.740315201 L53.5728802,2.85261467 C52.6664941,2.3567469 51.6435038,2.10881301 50.4991011,2.10881301 C49.5951191,2.10881301 48.8846759,2.33365502 48.3785902,2.7809083 C47.9518434,3.18076245 47.7342627,3.66812269 47.7342627,4.24663508 C47.7342627,4.88470023 47.9806939,5.41459814 48.4723543,5.82903664 C48.897899,6.21309109 49.674458,6.62996032 50.7972228,7.0772136 C52.1748337,7.63871092 53.1858028,8.29257577 53.8349388,9.0436696 C54.4876811,9.79476343 54.8122491,10.7318077 54.8122491,11.8499409" id="Fill-7"></path>
                    <path d="M63.3075158,6.66763654 L60.4825722,6.66763654 L60.4825722,12.3300089 C60.4825722,13.7702131 60.9802431,14.4884922 61.9779892,14.4884922 C62.4359907,14.4884922 62.8158554,14.4496006 63.1163814,14.3681713 L63.1873055,16.3358427 C62.6824219,16.5266545 62.0176586,16.6226681 61.1954197,16.6226681 C60.1820463,16.6226681 59.3922642,16.3091047 58.8200628,15.6856239 C58.2502657,15.0609277 57.9653671,14.0145009 57.9653671,12.5414819 L57.9653671,6.66277509 L56.283624,6.66277509 L56.283624,4.71819561 L57.9653671,4.71819561 L57.9653671,2.58280426 L60.4825722,1.81469537 L60.4825722,4.71819561 L63.3075158,4.71819561 L63.3075158,6.66763654" id="Fill-8"></path>
                    <path d="M76.028177,10.4583512 C76.028177,12.2510104 75.5220914,13.722814 74.5087179,14.873762 C73.4496646,16.0575247 72.0407991,16.6494061 70.2845256,16.6494061 C68.5895594,16.6494061 67.2420012,16.081832 66.2370425,14.9466837 C65.2320838,13.8115354 64.7296045,12.3798388 64.7296045,10.6528091 C64.7296045,8.84556557 65.2501154,7.36525443 66.2839246,6.21430645 C67.3201379,5.06335847 68.7169824,4.48606143 70.4732559,4.48606143 C72.16702,4.48606143 73.5253971,5.05606629 74.5556,6.18999921 C75.5389208,7.2923327 76.028177,8.71309109 76.028177,10.4583512 L76.028177,10.4583512 Z M73.3715279,10.5179039 C73.3715279,9.44960057 73.1431282,8.53321749 72.6851267,7.76632395 C72.1477863,6.84021797 71.3772379,6.37838034 70.381896,6.37838034 C69.3565016,6.37838034 68.5667195,6.84021797 68.0317833,7.76632395 C67.5713776,8.53321749 67.34418,9.46540028 67.34418,10.5665184 C67.34418,11.6360371 67.5713776,12.5548509 68.0317833,13.3180984 C68.5859531,14.2454197 69.3589058,14.7084727 70.3614602,14.7084727 C71.3399726,14.7084727 72.1081169,14.2344815 72.6646909,13.2962219 C73.1347134,12.5110979 73.3715279,11.588638 73.3715279,10.5179039 L73.3715279,10.5179039 Z" id="Fill-9"></path>
                    <path d="M84.3623618,7.00186114 C84.1087179,6.95446202 83.8370425,6.93137014 83.5545482,6.93137014 C82.6529704,6.93137014 81.9557503,7.27288691 81.465292,7.96321262 C81.0385451,8.57089371 80.8257728,9.33900261 80.8257728,10.266324 L80.8257728,16.3856725 L78.2628877,16.3856725 L78.2628877,8.39588156 C78.2628877,7.05290635 78.2376436,5.82660592 78.1883573,4.72427242 L80.4206639,4.72427242 L80.5144279,6.95567738 L80.5853521,6.95567738 C80.8570275,6.18878384 81.2825722,5.5701645 81.8667946,5.10832687 C82.4389959,4.69024228 83.054473,4.48241535 83.7192364,4.48241535 C83.9560508,4.48241535 84.1700252,4.50064578 84.3599576,4.52981447 L84.3623618,7.00186114" id="Fill-10"></path>
                    <path d="M95.8244204,10.0025904 C95.8244204,10.4668587 95.7943678,10.8582053 95.7306563,11.1778456 L88.0432033,11.1778456 C88.0708517,12.3300089 88.4447059,13.2123619 89.1575534,13.820043 C89.8054873,14.3620945 90.6445557,14.6343356 91.6723543,14.6343356 C92.8107465,14.6343356 93.8493641,14.4520313 94.7833986,14.0825612 L95.1849013,15.8812972 C94.0933911,16.3613653 92.8035339,16.602007 91.3177337,16.602007 C89.5290034,16.602007 88.1249463,16.0696784 87.1031582,15.0074518 C86.0849764,13.9440099 85.5728802,12.5135286 85.5728802,10.7245155 C85.5728802,8.96710178 86.0465091,7.50259036 86.9985752,6.33462731 C87.993917,5.08766571 89.3390711,4.46418491 91.031633,4.46418491 C92.6941424,4.46418491 93.952745,5.08766571 94.8062386,6.33462731 C95.4842251,7.32271676 95.8244204,8.54780183 95.8244204,10.0025904 L95.8244204,10.0025904 Z M93.3805436,9.33049507 C93.3985752,8.56117082 93.2302807,7.90001379 92.8828727,7.33851646 C92.4392965,6.61659133 91.7565016,6.25684413 90.8417007,6.25684413 C90.0026323,6.25684413 89.3210395,6.6080838 88.8017307,7.31299386 C88.3749839,7.87327582 88.12134,8.54780183 88.0432033,9.32806435 L93.3805436,9.33049507 L93.3805436,9.33049507 Z" id="Fill-11"></path>
                </g>
                <g id="Available-on-the" transform="translate(50.805687, 10.076068)" fill="#FFFFFF" sketch:type="MSShapeGroup">
                    <path d="M6.60303995,8.33221781 L5.26029014,8.33221781 L4.52580479,5.99750707 L1.97133447,5.99750707 L1.27050802,8.33221781 L-0.0361786817,8.33221781 L2.49545167,0.382533806 L4.05818646,0.382533806 L6.60303995,8.33221781 L6.60303995,8.33221781 Z M4.30461771,5.01792515 L3.63985438,2.94208655 C3.57013236,2.72939817 3.44150727,2.23474576 3.24316016,1.44476035 L3.21911809,1.44476035 C3.13737504,1.78627712 3.02077098,2.28214489 2.84526384,2.94208655 L2.19252154,5.01792515 L4.30461771,5.01792515 L4.30461771,5.01792515 Z" id="Fill-12"></path>
                    <path d="M12.9333179,2.60056978 L10.7863608,8.33221781 L9.56141711,8.33221781 L7.48418195,2.60056978 L8.83775069,2.60056978 L9.80664626,5.63168305 C9.97013236,6.13848908 10.1095764,6.62220323 10.2141594,7.08161013 L10.2490204,7.08161013 C10.3427845,6.66960235 10.4822285,6.18588821 10.6565336,5.63168305 L11.6134081,2.60056978 L12.9333179,2.60056978" id="Fill-13"></path>
                    <path d="M17.5037161,8.33221781 L17.409952,7.67227615 L17.375091,7.67227615 C16.9904179,8.20338942 16.4302375,8.46226156 15.7185922,8.46226156 C14.7040167,8.46226156 13.9803502,7.74276716 13.9803502,6.77533886 C13.9803502,5.36065729 15.1932729,4.62900926 17.293348,4.62900926 L17.293348,4.52327275 C17.293348,3.76853283 16.8966538,3.3905552 16.1152864,3.3905552 C15.5551061,3.3905552 15.0646478,3.53275257 14.6342946,3.81593196 L14.3782466,2.97854742 C14.9035659,2.64796891 15.5563082,2.48267965 16.3268566,2.48267965 C17.8078484,2.48267965 18.5555569,3.27266506 18.5555569,4.85385126 L18.5555569,6.96493536 C18.5555569,7.54344776 18.5795989,7.9919164 18.6372999,8.33343317 L17.5037161,8.33221781 L17.5037161,8.33221781 Z M17.328209,5.47733206 C15.9277582,5.47733206 15.2281339,5.82006419 15.2281339,6.63314149 C15.2281339,7.23474576 15.5899671,7.52886341 16.0912443,7.52886341 C16.7331677,7.52886341 17.328209,7.03421101 17.328209,6.36211572 L17.328209,5.47733206 L17.328209,5.47733206 Z" id="Fill-14"></path>
                    <path d="M21.3612668,1.65623337 C20.9417327,1.65623337 20.6147605,1.32565486 20.6147605,0.889339834 C20.6147605,0.453024812 20.9525516,0.134599921 21.3853089,0.134599921 C21.8168641,0.134599921 22.1666763,0.453024812 22.1546553,0.889339834 C22.1546553,1.3499621 21.8288852,1.65623337 21.3612668,1.65623337 L21.3612668,1.65623337 Z M20.7554066,2.60056978 L22.0152113,2.60056978 L22.0152113,8.33221781 L20.7554066,8.33221781 L20.7554066,2.60056978 Z" id="Fill-15"></path>
                    <path d="M24.2535283,-0.0294739728 L25.513333,-0.0294739728 L25.513333,8.33221781 L24.2535283,8.33221781 L24.2535283,-0.0294739728 Z" id="Fill-16"></path>
                    <path d="M30.8675028,8.33221781 L30.7725366,7.67227615 L30.7388777,7.67227615 C30.3542045,8.20338942 29.7940242,8.46226156 29.0823788,8.46226156 C28.0678033,8.46226156 27.3441369,7.74276716 27.3441369,6.77533886 C27.3441369,5.36065729 28.5570595,4.62900926 30.6571346,4.62900926 L30.6571346,4.52327275 C30.6571346,3.76853283 30.2604404,3.3905552 29.479073,3.3905552 C28.9188927,3.3905552 28.4284344,3.53275257 27.9980813,3.81593196 L27.7408311,2.97733206 C28.2661504,2.64675354 28.9188927,2.48146429 29.6894412,2.48146429 C31.1704329,2.48146429 31.9193435,3.2714497 31.9193435,4.8526359 L31.9193435,6.96372 C31.9193435,7.5422324 31.9433856,7.99070104 31.9986823,8.33221781 L30.8675028,8.33221781 L30.8675028,8.33221781 Z M30.6919956,5.47733206 C29.2915448,5.47733206 28.5919205,5.82006419 28.5919205,6.63314149 C28.5919205,7.23474576 28.9537537,7.52886341 29.4550309,7.52886341 C30.0969543,7.52886341 30.6919956,7.03421101 30.6919956,6.36211572 L30.6919956,5.47733206 L30.6919956,5.47733206 Z" id="Fill-17"></path>
                    <path d="M37.0222736,8.46226156 C36.2180662,8.46226156 35.624227,8.11952943 35.2383517,7.44743415 L35.2143097,7.44743415 L35.1421835,8.33221781 L34.069907,8.33221781 C34.1035659,7.87281091 34.1155869,7.3526359 34.1155869,6.78749248 L34.1155869,-0.0294739728 L35.3777958,-0.0294739728 L35.3777958,3.43916968 L35.4006357,3.43916968 C35.77449,2.8023199 36.3803502,2.48389501 37.2085997,2.48389501 C38.5741895,2.48389501 39.531064,3.66401169 39.531064,5.38496453 C39.531064,7.16425476 38.4684043,8.46226156 37.0222736,8.46226156 L37.0222736,8.46226156 Z M36.7662255,3.48413808 C36.041357,3.48413808 35.3777958,4.12098786 35.3777958,5.00577153 L35.3777958,6.00844533 C35.3777958,6.79843074 35.9740392,7.44743415 36.7433856,7.44743415 C37.6870369,7.44743415 38.2496215,6.66960235 38.2496215,5.43114829 C38.2484194,4.27533886 37.664197,3.48413808 36.7662255,3.48413808 L36.7662255,3.48413808 Z" id="Fill-18"></path>
                    <path d="M41.3955268,-0.0294739728 L42.6541294,-0.0294739728 L42.6541294,8.33221781 L41.3955268,8.33221781 L41.3955268,-0.0294739728 Z" id="Fill-19"></path>
                    <path d="M49.5109288,5.77266506 L45.7291106,5.77266506 C45.7543548,6.85798349 46.4635959,7.47052603 47.5130324,7.47052603 C48.0744149,7.47052603 48.5877131,7.37572778 49.0421083,7.19950026 L49.2380512,8.08428393 C48.701913,8.32006419 48.0720106,8.43795432 47.3375253,8.43795432 C45.5632203,8.43795432 44.5137838,7.30523677 44.5137838,5.54903842 C44.5137838,3.79162471 45.5884644,2.47052603 47.1968792,2.47052603 C48.6418078,2.47052603 49.5542045,3.55584445 49.5542045,5.19536803 C49.5578108,5.41899467 49.5469919,5.61952943 49.5109288,5.77266506 L49.5109288,5.77266506 Z M48.3569092,4.86478952 C48.3569092,3.98000585 47.9121309,3.35530969 47.1067214,3.35530969 C46.383055,3.35530969 45.8132578,3.99215947 45.7291106,4.86478952 L48.3569092,4.86478952 L48.3569092,4.86478952 Z" id="Fill-20"></path>
                    <path d="M57.1466913,8.46226156 C55.4901925,8.46226156 54.4167139,7.21165388 54.4167139,5.51379292 C54.4167139,3.74422559 55.5130324,2.48267965 57.2416575,2.48267965 C58.8729122,2.48267965 59.971635,3.67373458 59.971635,5.42021003 C59.971635,7.21165388 58.8392533,8.46226156 57.1466913,8.46226156 L57.1466913,8.46226156 Z M57.1947755,3.41364708 C56.284783,3.41364708 55.7017627,4.2741235 55.7017627,5.47733206 C55.7017627,6.65744873 56.296804,7.51792515 57.1827545,7.51792515 C58.0687049,7.51792515 58.6637462,6.59789598 58.6637462,5.45302481 C58.6637462,4.28627712 58.0807259,3.41364708 57.1947755,3.41364708 L57.1947755,3.41364708 Z" id="Fill-21"></path>
                    <path d="M66.7442871,8.33221781 L65.4868867,8.33221781 L65.4868867,5.04101703 C65.4868867,4.02740498 65.1010114,3.51938359 64.342484,3.51938359 C63.5959776,3.51938359 63.0814772,4.16838699 63.0814772,4.9231269 L63.0814772,8.33221781 L61.8240768,8.33221781 L61.8240768,4.238878 C61.8240768,3.73207197 61.8096515,3.18880507 61.7759926,2.59935442 L62.8843322,2.59935442 L62.9432353,3.48413808 L62.9792984,3.48413808 C63.3146853,2.87159555 64.0046928,2.48146429 64.7752413,2.48146429 C65.9629197,2.48146429 66.7442871,3.40149346 66.7442871,4.89881966 L66.7442871,8.33221781" id="Fill-22"></path>
                    <path d="M74.9871121,3.55584445 L73.6010865,3.55584445 L73.6010865,6.33902384 C73.6010865,7.04757999 73.8451136,7.40125038 74.3343698,7.40125038 C74.5555569,7.40125038 74.7442871,7.37694314 74.8945501,7.34169764 L74.9294111,8.30912593 C74.6841819,8.40392418 74.3560076,8.4513233 73.9508987,8.4513233 C72.956759,8.4513233 72.3653239,7.89711815 72.3653239,6.44597571 L72.3653239,3.55584445 L71.5394787,3.55584445 L71.5394787,2.60056978 L72.3653239,2.60056978 L72.3653239,1.55049686 L73.6010865,1.17251922 L73.6010865,2.59935442 L74.9871121,2.59935442 L74.9871121,3.55584445" id="Fill-23"></path>
                    <path d="M81.6587875,8.33221781 L80.3977807,8.33221781 L80.3977807,5.06532428 C80.3977807,4.0395586 80.0119055,3.52059895 79.2545801,3.52059895 C78.6018378,3.52059895 77.9959776,3.96906759 77.9959776,4.87694314 L77.9959776,8.33221781 L76.7349708,8.33221781 L76.7349708,-0.0294739728 L77.9959776,-0.0294739728 L77.9959776,3.41364708 L78.0200197,3.41364708 C78.4155118,2.78895092 78.9889152,2.48146429 79.7234006,2.48146429 C80.9243022,2.48146429 81.6587875,3.42458534 81.6587875,4.9231269 L81.6587875,8.33221781" id="Fill-24"></path>
                    <path d="M88.0960527,5.77266506 L84.3154366,5.77266506 C84.3394787,6.85798349 85.0487199,7.47052603 86.0993585,7.47052603 C86.661943,7.47052603 87.1740392,7.37572778 87.6260302,7.19950026 L87.8231752,8.08428393 C87.288239,8.32006419 86.6571346,8.43795432 85.9214472,8.43795432 C84.1483442,8.43795432 83.0989077,7.30523677 83.0989077,5.54903842 C83.0989077,3.79162471 84.1723863,2.47052603 85.780801,2.47052603 C87.2269318,2.47052603 88.1381264,3.55584445 88.1381264,5.19536803 C88.1429348,5.41899467 88.1309137,5.61952943 88.0960527,5.77266506 L88.0960527,5.77266506 Z M86.9408311,4.86478952 C86.9408311,3.98000585 86.4984569,3.35530969 85.6930475,3.35530969 C84.969381,3.35530969 84.3983818,3.99215947 84.3154366,4.86478952 L86.9408311,4.86478952 L86.9408311,4.86478952 Z" id="Fill-25"></path>
                </g>
            </g>
        </g>
    </g>
</svg>