<?xml version="1.0" encoding="UTF-8" standalone="no"?>
<svg width="200px" height="69px" viewBox="0 0 200 69" version="1.1" xmlns="http://www.w3.org/2000/svg" xmlns:xlink="http://www.w3.org/1999/xlink" xmlns:sketch="http://www.bohemiancoding.com/sketch/ns">
    <!-- Generator: Sketch 3.2 (9961) - http://www.bohemiancoding.com/sketch -->
    <title>App Store 2</title>
    <desc>Created with Sketch.</desc>
    <defs></defs>
    <g id="Page-1" stroke="none" stroke-width="1" fill="none" fill-rule="evenodd" sketch:type="MSPage">
        <g id="Artboard-1" sketch:type="MSArtboardGroup" transform="translate(-525.000000, -2965.000000)">
            <g id="App-Store-2" sketch:type="MSLayerGroup" transform="translate(525.000000, 2965.000000)">
                <rect id="background" fill="#FFFFFF" sketch:type="MSShapeGroup" x="0" y="0" width="200" height="68.4515512" rx="10.1557211"></rect>
                <g id="icon" transform="translate(16.738659, 12.047473)" fill="#000000" sketch:type="MSShapeGroup">
                    <path d="M27.0447889,20.6113412 C27.0012127,15.7149508 31.0102285,13.3328409 31.1935493,13.2219391 C28.9230759,9.87513552 25.4039174,9.41785551 24.1672533,9.38139464 C21.2115808,9.06691968 18.3445635,11.1694962 16.8389287,11.1694962 C15.3032412,11.1694962 12.9846838,9.41177869 10.4858107,9.46343159 C7.27018338,9.51356528 4.26191892,11.3958574 2.61203162,14.3188035 C-0.79292706,20.2786358 1.74651697,29.0368395 5.00872583,33.8542313 C6.64058158,36.2150723 8.54741854,38.8478506 11.0432863,38.7551793 C13.4850594,38.6549119 14.3971556,37.1812853 17.3438122,37.1812853 C20.2634215,37.1812853 21.1199204,38.7551793 23.665375,38.6944112 C26.285961,38.6549119 27.9358483,36.3259741 29.5106041,33.9438643 C31.3964043,31.2427218 32.1537296,28.576521 32.1837822,28.4397928 C32.123677,28.4200432 27.0958783,26.4800213 27.0447889,20.6113412" id="Fill-2"></path>
                    <path d="M22.2363742,6.21233776 C23.5496725,4.55184919 24.448245,2.29279474 24.1988085,0.000317829141 C22.297982,0.0853931816 19.920822,1.32962021 18.5519264,2.95364792 C17.340807,4.38473689 16.2589137,6.73038589 16.5384028,8.93626824 C18.6736394,9.09730373 20.865976,7.84699989 22.2363742,6.21233776" id="Fill-3"></path>
                </g>
                <g id="App-Store" transform="translate(61.288422, 28.981779)" fill="#000000" sketch:type="MSShapeGroup">
                    <path d="M17.8624188,21.4820906 L14.449947,21.4820906 L12.5806758,15.5435272 L6.0833054,15.5435272 L4.30268932,21.4820906 L0.980375271,21.4820906 L7.41914311,1.26454082 L11.395101,1.26454082 L17.8624188,21.4820906 L17.8624188,21.4820906 Z M12.0171897,13.0520347 L10.3267314,7.77432448 C10.1479185,7.23348831 9.81132944,5.96343484 9.31846693,3.96416405 L9.25836175,3.96416405 C9.06001464,4.8240328 8.74295979,6.09408627 8.30869984,7.77432448 L6.6467915,13.0520347 L12.0171897,13.0520347 L12.0171897,13.0520347 Z" id="Fill-4"></path>
                    <path d="M34.3883392,14.0136901 C34.3883392,16.4930289 33.7226743,18.4528004 32.3898418,19.8914854 C31.1967539,21.1721733 29.7136585,21.8117576 27.9450635,21.8117576 C26.0352213,21.8117576 24.6618178,21.1235588 23.8278584,19.7426035 L23.8278584,27.3917892 L20.6242521,27.3917892 L20.6242521,11.6953867 C20.6242521,10.1382039 20.5836811,8.54152186 20.5055443,6.90382132 L23.3229748,6.90382132 L23.5017877,9.21604787 L23.5618929,9.21604787 C24.6302626,7.47352234 26.2515999,6.60301918 28.4274076,6.60301918 C30.1283843,6.60301918 31.5483693,7.2821028 32.6843572,8.64178924 C33.8188426,10.0045141 34.3883392,11.7941349 34.3883392,14.0136901 L34.3883392,14.0136901 Z M31.1246277,14.1321879 C31.1246277,12.7132525 30.8090755,11.5434664 30.1749658,10.6228296 C29.4822536,9.66421267 28.5521258,9.18262541 27.3860853,9.18262541 C26.5957021,9.18262541 25.8774451,9.45000509 25.2358223,9.97868763 C24.5926968,10.5088894 24.1719605,11.203165 23.9751161,12.064553 C23.8759425,12.4641033 23.8263557,12.7907319 23.8263557,13.0489963 L23.8263557,15.4827591 C23.8263557,16.5401242 24.1479185,17.4349346 24.7910439,18.1671903 C25.4341694,18.8964076 26.2696315,19.2625355 27.2974301,19.2625355 C28.5040417,19.2625355 29.4431852,18.7900634 30.1148606,17.8527153 C30.7880387,16.9123289 31.1246277,15.6726594 31.1246277,14.1321879 L31.1246277,14.1321879 Z" id="Fill-5"></path>
                    <path d="M50.9728621,14.0136901 C50.9728621,16.4930289 50.3071972,18.4528004 48.9743648,19.8914854 C47.7797742,21.1721733 46.2981814,21.8117576 44.5280838,21.8117576 C42.6197442,21.8117576 41.2463407,21.1235588 40.4108787,19.7426035 L40.4108787,27.3917892 L37.2072723,27.3917892 L37.2072723,11.6953867 C37.2072723,10.1382039 37.1667013,8.54152186 37.0885646,6.90382132 L39.9059951,6.90382132 L40.084808,9.21604787 L40.1449132,9.21604787 C41.2117802,7.47352234 42.8331176,6.60301918 45.0104279,6.60301918 C46.7099019,6.60301918 48.1313895,7.2821028 49.2688802,8.64178924 C50.4018629,10.0045141 50.9728621,11.7941349 50.9728621,14.0136901 L50.9728621,14.0136901 Z M47.707648,14.1321879 C47.707648,12.7132525 47.3905932,11.5434664 46.7564835,10.6228296 C46.0652738,9.66421267 45.1366487,9.18262541 43.9706082,9.18262541 C43.180225,9.18262541 42.4619681,9.45000509 41.81734,9.97868763 C41.1757171,10.5088894 40.7549808,11.203165 40.5581364,12.064553 C40.4604654,12.4641033 40.4078734,12.7907319 40.4078734,13.0489963 L40.4078734,15.4827591 C40.4078734,16.5401242 40.7309388,17.4349346 41.371059,18.1671903 C42.0141844,18.8948884 42.8496465,19.2625355 43.8804504,19.2625355 C45.0885646,19.2625355 46.0277081,18.7900634 46.6978809,17.8527153 C47.371059,16.9123289 47.707648,15.6726594 47.707648,14.1321879 L47.707648,14.1321879 Z" id="Fill-6"></path>
                    <path d="M69.5153114,15.8124261 C69.5153114,17.5321636 68.9217727,18.9313493 67.7377006,20.0115024 C66.4364234,21.1904037 64.6197442,21.7813736 62.2906683,21.7813736 C60.1389027,21.7813736 58.4138839,21.3620736 57.1126067,20.5219545 L57.8534031,17.8223313 C59.2583617,18.6624504 60.8015623,19.0832695 62.4815022,19.0832695 C63.6896164,19.0832695 64.6287599,18.8067747 65.2989327,18.2583425 C65.9721108,17.7068719 66.3102025,16.973097 66.3102025,16.0554985 C66.3102025,15.2336098 66.0307134,14.5438918 65.4777457,13.983306 C64.9232753,13.4257586 64.0066713,12.9031529 62.7204203,12.4261232 C59.2192934,11.1059361 57.4672273,9.17351019 57.4672273,6.63492244 C57.4672273,4.97595307 58.0863107,3.61778583 59.3199696,2.55586313 C60.5551311,1.49545963 62.1929974,0.965257881 64.2305631,0.965257881 C66.0502475,0.965257881 67.5664008,1.28580966 68.7700071,1.925394 L67.9661003,4.56576833 C66.8331176,3.94593362 65.5543798,3.63601627 64.1238764,3.63601627 C62.9938989,3.63601627 62.1058448,3.91706877 61.4732378,4.47613537 C60.9398043,4.97595307 60.6678283,5.58515336 60.6678283,6.30829386 C60.6678283,7.10587528 60.9758674,7.76824767 61.5904429,8.2862958 C62.1223738,8.76636386 63.0930725,9.28745039 64.4965285,9.846517 C66.2185421,10.5483887 67.4822536,11.3657197 68.2936735,12.304587 C69.1096014,13.2434543 69.5153114,14.4147596 69.5153114,15.8124261" id="Fill-7"></path>
                    <path d="M80.1343948,9.33454568 L76.6032152,9.33454568 L76.6032152,16.4125112 C76.6032152,18.2127664 77.2253039,19.1106152 78.4724865,19.1106152 C79.0449883,19.1106152 79.5198193,19.0620007 79.8954767,18.9602141 L79.9841318,21.4198033 C79.3530274,21.6583182 78.5220732,21.7783352 77.4942746,21.7783352 C76.2275578,21.7783352 75.2403302,21.3863809 74.5250785,20.6070299 C73.8128321,19.8261597 73.4567089,18.5181261 73.4567089,16.6768524 L73.4567089,9.32846887 L71.35453,9.32846887 L71.35453,6.89774451 L73.4567089,6.89774451 L73.4567089,4.22850533 L76.6032152,3.26836921 L76.6032152,6.89774451 L80.1343948,6.89774451 L80.1343948,9.33454568" id="Fill-8"></path>
                    <path d="M96.0352213,14.072939 C96.0352213,16.313763 95.4026142,18.1535175 94.1358974,19.5922025 C92.8120808,21.0719059 91.0509989,21.8117576 88.855657,21.8117576 C86.7369493,21.8117576 85.0525015,21.10229 83.7963031,19.6833546 C82.5401048,18.2644193 81.9120056,16.4747985 81.9120056,14.3160114 C81.9120056,12.056957 82.5626442,10.206568 83.8549057,8.76788306 C85.1501724,7.32919808 86.896228,6.60757679 89.0915699,6.60757679 C91.208775,6.60757679 92.9067464,7.32008287 94.1945,8.73749901 C95.423651,10.1154159 96.0352213,11.8913639 96.0352213,14.072939 L96.0352213,14.072939 Z M92.7144098,14.1473799 C92.7144098,12.8120007 92.4289102,11.6665219 91.8564083,10.7079049 C91.1847329,9.55027246 90.2215473,8.97297543 88.97737,8.97297543 C87.695627,8.97297543 86.7083993,9.55027246 86.0397291,10.7079049 C85.464222,11.6665219 85.180225,12.8317503 85.180225,14.208148 C85.180225,15.5450464 85.464222,16.6935637 86.0397291,17.647623 C86.7324414,18.8067747 87.6986322,19.3855909 88.9518253,19.3855909 C90.1749658,19.3855909 91.1351461,18.7931018 91.8308636,17.6202773 C92.4183918,16.6388724 92.7144098,15.4857975 92.7144098,14.1473799 L92.7144098,14.1473799 Z" id="Fill-9"></path>
                    <path d="M106.452952,9.75232643 C106.135897,9.69307752 105.796303,9.66421267 105.443185,9.66421267 C104.316213,9.66421267 103.444688,10.0911086 102.831615,10.9540158 C102.298181,11.7136171 102.032216,12.6737533 102.032216,13.8329049 L102.032216,21.4820906 L98.8286097,21.4820906 L98.8286097,11.4948519 C98.8286097,9.81613294 98.7970545,8.28325739 98.7354466,6.90534053 L101.52583,6.90534053 L101.643035,9.69459672 L101.73169,9.69459672 C102.071284,8.73597981 102.603215,7.96270562 103.333493,7.38540859 C104.048745,6.86280285 104.818091,6.60301918 105.649045,6.60301918 C105.945063,6.60301918 106.212532,6.62580722 106.449947,6.66226809 L106.452952,9.75232643" id="Fill-10"></path>
                    <path d="M120.780526,13.5032379 C120.780526,14.0835734 120.74296,14.5727567 120.66332,14.972307 L111.054004,14.972307 C111.088565,16.4125112 111.555882,17.5154523 112.446942,18.2750537 C113.256859,18.9526181 114.305695,19.2929195 115.590443,19.2929195 C117.013433,19.2929195 118.311705,19.0650391 119.479248,18.6032015 L119.981127,20.8516215 C118.616739,21.4517066 117.004417,21.7525087 115.147167,21.7525087 C112.911254,21.7525087 111.156183,21.0870979 109.878948,19.7593148 C108.60622,18.4300124 107.9661,16.6419108 107.9661,14.4056444 C107.9661,12.2088772 108.558136,10.3782379 109.748219,8.91828413 C110.992396,7.35958214 112.673839,6.58023114 114.789541,6.58023114 C116.867678,6.58023114 118.440931,7.35958214 119.507798,8.91828413 C120.355281,10.1533959 120.780526,11.6847523 120.780526,13.5032379 L120.780526,13.5032379 Z M117.72568,12.6631188 C117.748219,11.7014635 117.537851,10.8750172 117.103591,10.1731456 C116.549121,9.27073916 115.695627,8.82105516 114.552126,8.82105516 C113.50329,8.82105516 112.651299,9.26010474 112.002163,10.1412423 C111.46873,10.8415948 111.151675,11.6847523 111.054004,12.6600804 L117.72568,12.6631188 L117.72568,12.6631188 Z" id="Fill-11"></path>
                </g>
                <g id="Available-on-the" transform="translate(62.507109, 11.595085)" fill="#000000" sketch:type="MSShapeGroup">
                    <path d="M9.25379994,11.4152723 L7.57536267,11.4152723 L6.65725599,8.49688383 L3.46416808,8.49688383 L2.58813503,11.4152723 L0.954776648,11.4152723 L4.11931459,1.47816726 L6.07273307,1.47816726 L9.25379994,11.4152723 L9.25379994,11.4152723 Z M6.38077214,7.27240644 L5.54981797,4.67760819 C5.46266545,4.41174771 5.30188409,3.79343221 5.0539502,2.80595044 L5.02389761,2.80595044 C4.9217188,3.2328464 4.77596373,3.85268111 4.5565798,4.67760819 L3.74065193,7.27240644 L6.38077214,7.27240644 L6.38077214,7.27240644 Z" id="Fill-12"></path>
                    <path d="M17.1666474,4.25071223 L14.482951,11.4152723 L12.9517714,11.4152723 L10.3552274,4.25071223 L12.0471884,4.25071223 L13.2583078,8.03960381 C13.4626655,8.67311135 13.6369705,9.27775403 13.7676993,9.85201266 L13.8112755,9.85201266 C13.9284806,9.33700294 14.1027857,8.73236026 14.320667,8.03960381 L15.5167601,4.25071223 L17.1666474,4.25071223" id="Fill-13"></path>
                    <path d="M22.8796452,11.4152723 L22.7624401,10.5903452 L22.7188638,10.5903452 C22.2380223,11.2542368 21.5377969,11.577827 20.6482402,11.577827 C19.3800208,11.577827 18.4754378,10.6784589 18.4754378,9.46917358 C18.4754378,7.70082161 19.9915911,6.78626157 22.616685,6.78626157 L22.616685,6.65409093 C22.616685,5.71066604 22.1208172,5.23819399 21.144108,5.23819399 C20.4438826,5.23819399 19.8308097,5.41594071 19.2928683,5.76991495 L18.9728082,4.72318427 C19.6294573,4.30996113 20.4453852,4.10334956 21.4085708,4.10334956 C23.2598105,4.10334956 24.1944461,5.09083133 24.1944461,7.06731407 L24.1944461,9.7061692 C24.1944461,10.4293097 24.2244987,10.9898955 24.2966249,11.4167915 L22.8796452,11.4152723 L22.8796452,11.4152723 Z M22.6602612,7.84666507 C20.9096978,7.84666507 20.0351673,8.27508024 20.0351673,9.29142686 C20.0351673,10.0434322 20.4874588,10.4110793 21.1140554,10.4110793 C21.9164596,10.4110793 22.6602612,9.79276376 22.6602612,8.95264465 L22.6602612,7.84666507 L22.6602612,7.84666507 Z" id="Fill-14"></path>
                    <path d="M27.7015836,3.07029171 C27.1771658,3.07029171 26.7684506,2.65706857 26.7684506,2.11167479 C26.7684506,1.56628101 27.1906895,1.1682499 27.7316362,1.1682499 C28.2710802,1.1682499 28.7083454,1.56628101 28.6933191,2.11167479 C28.6933191,2.68745262 28.2861065,3.07029171 27.7015836,3.07029171 L27.7015836,3.07029171 Z M26.9442582,4.25071223 L28.5190141,4.25071223 L28.5190141,11.4152723 L26.9442582,11.4152723 L26.9442582,4.25071223 Z" id="Fill-15"></path>
                    <path d="M31.3169104,0.963157534 L32.8916662,0.963157534 L32.8916662,11.4152723 L31.3169104,11.4152723 L31.3169104,0.963157534 Z" id="Fill-16"></path>
                    <path d="M39.5843785,11.4152723 L39.4656707,10.5903452 L39.4235971,10.5903452 C38.9427556,11.2542368 38.2425302,11.577827 37.3529735,11.577827 C36.0847541,11.577827 35.1801711,10.6784589 35.1801711,9.46917358 C35.1801711,7.70082161 36.6963244,6.78626157 39.3214183,6.78626157 L39.3214183,6.65409093 C39.3214183,5.71066604 38.8255505,5.23819399 37.8488413,5.23819399 C37.1486159,5.23819399 36.535543,5.41594071 35.9976016,5.76991495 L35.6760389,4.72166507 C36.332688,4.30844193 37.1486159,4.10183036 38.1118014,4.10183036 C39.9630411,4.10183036 40.8991794,5.08931213 40.8991794,7.06579487 L40.8991794,9.70465 C40.8991794,10.4277905 40.9292319,10.9883763 40.9983529,11.4152723 L39.5843785,11.4152723 L39.5843785,11.4152723 Z M39.3649945,7.84666507 C37.614431,7.84666507 36.7399006,8.27508024 36.7399006,9.29142686 C36.7399006,10.0434322 37.1921921,10.4110793 37.8187887,10.4110793 C38.6211929,10.4110793 39.3649945,9.79276376 39.3649945,8.95264465 L39.3649945,7.84666507 L39.3649945,7.84666507 Z" id="Fill-17"></path>
                    <path d="M47.277842,11.577827 C46.2725828,11.577827 45.5302838,11.1494118 45.0479397,10.3092927 L45.0178871,10.3092927 L44.9277293,11.4152723 L43.5873837,11.4152723 C43.6294573,10.8410136 43.6444836,10.1907949 43.6444836,9.4843656 L43.6444836,0.963157534 L45.2222447,0.963157534 L45.2222447,5.2989621 L45.2507947,5.2989621 C45.7181125,4.50289988 46.4754378,4.10486876 47.5107496,4.10486876 C49.2177368,4.10486876 50.41383,5.58001461 50.41383,7.73120566 C50.41383,9.95531845 49.0855054,11.577827 47.277842,11.577827 L47.277842,11.577827 Z M46.9577819,5.3551726 C46.0516963,5.3551726 45.2222447,6.15123483 45.2222447,7.25721441 L45.2222447,8.51055666 C45.2222447,9.49803843 45.967549,10.3092927 46.9292319,10.3092927 C48.1087962,10.3092927 48.8120268,9.33700294 48.8120268,7.78893537 C48.8105242,6.34417358 48.0802462,5.3551726 46.9577819,5.3551726 L46.9577819,5.3551726 Z" id="Fill-18"></path>
                    <path d="M52.7444085,0.963157534 L54.3176617,0.963157534 L54.3176617,11.4152723 L52.7444085,11.4152723 L52.7444085,0.963157534 Z" id="Fill-19"></path>
                    <path d="M62.8886609,8.21583133 L58.1613882,8.21583133 C58.1929434,9.57247936 59.0794949,10.3381575 60.3912905,10.3381575 C61.0930186,10.3381575 61.7346414,10.2196597 62.3026354,9.99937533 L62.547564,11.1053549 C61.8773912,11.4000802 61.0900133,11.5474429 60.1719066,11.5474429 C57.9540253,11.5474429 56.6422297,10.131546 56.6422297,7.93629803 C56.6422297,5.73953089 57.9855806,4.08815753 59.996099,4.08815753 C61.8022597,4.08815753 62.9427556,5.44480557 62.9427556,7.49421004 C62.9472635,7.77374334 62.9337398,8.02441179 62.8886609,8.21583133 L62.8886609,8.21583133 Z M61.4461365,7.0809869 C61.4461365,5.97500732 60.8901636,5.19413712 59.8834017,5.19413712 C58.9788187,5.19413712 58.2665723,5.99019934 58.1613882,7.0809869 L61.4461365,7.0809869 L61.4461365,7.0809869 Z" id="Fill-20"></path>
                    <path d="M72.4333642,11.577827 C70.3627406,11.577827 69.0208924,10.0145674 69.0208924,7.89224115 C69.0208924,5.68028199 70.3912905,4.10334956 72.5520719,4.10334956 C74.5911403,4.10334956 75.9645437,5.59216823 75.9645437,7.77526254 C75.9645437,10.0145674 74.5490667,11.577827 72.4333642,11.577827 L72.4333642,11.577827 Z M72.4934694,5.26705885 C71.3559788,5.26705885 70.6272034,6.34265437 70.6272034,7.84666507 C70.6272034,9.32181091 71.371005,10.3974064 72.4784431,10.3974064 C73.5858811,10.3974064 74.3296827,9.24736998 74.3296827,7.81628101 C74.3296827,6.3578464 73.6009074,5.26705885 72.4934694,5.26705885 L72.4934694,5.26705885 Z" id="Fill-21"></path>
                    <path d="M84.4303589,11.4152723 L82.8586084,11.4152723 L82.8586084,7.30127129 C82.8586084,6.03425622 82.3762643,5.39922948 81.428105,5.39922948 C80.494972,5.39922948 79.8518465,6.21048374 79.8518465,7.15390863 L79.8518465,11.4152723 L78.280096,11.4152723 L78.280096,6.2985975 C78.280096,5.66508996 78.2620644,4.98600634 78.2199908,4.24919302 L79.6054153,4.24919302 L79.6790441,5.3551726 L79.724123,5.3551726 C80.1433567,4.58949443 81.0058661,4.10183036 81.9690516,4.10183036 C83.4536497,4.10183036 84.4303589,5.25186682 84.4303589,7.12352457 L84.4303589,11.4152723" id="Fill-22"></path>
                    <path d="M94.7338901,5.44480557 L93.0013582,5.44480557 L93.0013582,8.9237798 C93.0013582,9.80947499 93.306392,10.251563 93.9179622,10.251563 C94.1944461,10.251563 94.4303589,10.2211789 94.6181876,10.177122 L94.6617639,11.3864074 C94.3552274,11.5049052 93.9450096,11.5641541 93.4386234,11.5641541 C92.1959487,11.5641541 91.4566549,10.8713977 91.4566549,9.05746964 L91.4566549,5.44480557 L90.4243484,5.44480557 L90.4243484,4.25071223 L91.4566549,4.25071223 L91.4566549,2.93812107 L93.0013582,2.46564903 L93.0013582,4.24919302 L94.7338901,4.24919302 L94.7338901,5.44480557" id="Fill-23"></path>
                    <path d="M103.073484,11.4152723 L101.497226,11.4152723 L101.497226,7.33165535 C101.497226,6.04944825 101.014882,5.40074869 100.068225,5.40074869 C99.2522973,5.40074869 98.494972,5.96133449 98.494972,7.09617892 L98.494972,11.4152723 L96.9187135,11.4152723 L96.9187135,0.963157534 L98.494972,0.963157534 L98.494972,5.26705885 L98.5250246,5.26705885 C99.0193897,4.48618865 99.736144,4.10183036 100.654251,4.10183036 C102.155378,4.10183036 103.073484,5.28073167 103.073484,7.15390863 L103.073484,11.4152723" id="Fill-24"></path>
                    <path d="M111.120066,8.21583133 L106.394296,8.21583133 C106.424348,9.57247936 107.3109,10.3381575 108.624198,10.3381575 C109.327429,10.3381575 109.967549,10.2196597 110.532538,9.99937533 L110.778969,11.1053549 C110.110299,11.4000802 109.321418,11.5474429 108.401809,11.5474429 C106.18543,11.5474429 104.873635,10.131546 104.873635,7.93629803 C104.873635,5.73953089 106.215483,4.08815753 108.226001,4.08815753 C110.033665,4.08815753 111.172658,5.44480557 111.172658,7.49421004 C111.178668,7.77374334 111.163642,8.02441179 111.120066,8.21583133 L111.120066,8.21583133 Z M109.676039,7.0809869 C109.676039,5.97500732 109.123071,5.19413712 108.116309,5.19413712 C107.211726,5.19413712 106.497977,5.99019934 106.394296,7.0809869 L109.676039,7.0809869 L109.676039,7.0809869 Z" id="Fill-25"></path>
                </g>
            </g>
        </g>
    </g>
</svg>