<?xml version="1.0" encoding="utf-8"?>
<!-- Generator: Adobe Illustrator 16.0.4, SVG Export Plug-In . SVG Version: 6.00 Build 0)  -->
<!DOCTYPE svg PUBLIC "-//W3C//DTD SVG 1.1//EN" "http://www.w3.org/Graphics/SVG/1.1/DTD/svg11.dtd">
<svg version="1.1" id="Layer_1" xmlns:sketch="http://www.bohemiancoding.com/sketch/ns"
	 xmlns="http://www.w3.org/2000/svg" xmlns:xlink="http://www.w3.org/1999/xlink" x="0px" y="0px" width="212px" height="197px"
	 viewBox="0 0 212 197" enable-background="new 0 0 212 197" xml:space="preserve">
<title>dropbox</title>
<desc>Created with Sketch.</desc>
<g id="Page-1" sketch:type="MSPage">
	<g id="Artboard-1" transform="translate(-193.000000, -1761.000000)" sketch:type="MSArtboardGroup">
		<g id="dropbox" transform="translate(193.000000, 1761.000000)" sketch:type="MSLayerGroup">
			<g>
				<g>
					<path fill="#007EE5" d="M106.201,121.535l-43.484,36.111l-18.606-12.159v13.63l62.09,37.264l62.092-37.264v-13.63
						l-18.607,12.159L106.201,121.535z M0.756,109.474l61.961,40.487l43.357-36.219L43.6,75.137L0.756,109.474z M106.074,113.742
						l43.359,36.219l61.961-40.487L168.55,75.137L106.074,113.742z M149.434,0.315l-32.366,27.033
						c-0.42,4.583-0.896,10.175-1.225,15.218l52.707,32.571l42.845-34.334L149.434,0.315z M98.726,30.391L62.717,0.315L0.756,40.802
						L43.6,75.137l54.271-33.539C98.108,37.918,98.415,34.014,98.726,30.391z"/>
				</g>
			</g>
			<path id="Path-100" sketch:type="MSShapeGroup" fill="none" stroke="#000000" stroke-width="9" d="M84,62.551
				c4.095,6.96,13.193,15.751,16.499,19.48c3.306,3.729,5.159,5.52,5.159,5.52L130,65.223"/>
			<path id="Path-101" sketch:type="MSShapeGroup" fill="none" stroke="#000000" stroke-width="9" d="M106.064,82.844
				c0,0,0.371-20.264,0.371-30.635S109.027,4,109.027,4"/>
		</g>
	</g>
</g>
</svg>
