<?xml version="1.0" encoding="UTF-8" standalone="no"?>
<svg width="315px" height="315px" viewBox="0 0 315 315" version="1.1" xmlns="http://www.w3.org/2000/svg" xmlns:xlink="http://www.w3.org/1999/xlink" xmlns:sketch="http://www.bohemiancoding.com/sketch/ns">
    <!-- Generator: Sketch 3.2 (9961) - http://www.bohemiancoding.com/sketch -->
    <title>logo-lg</title>
    <desc>Created with Sketch.</desc>
    <defs></defs>
    <g id="Page-1" stroke="none" stroke-width="1" fill="none" fill-rule="evenodd" sketch:type="MSPage">
        <g id="Artboard-1" sketch:type="MSArtboardGroup" transform="translate(-468.000000, -187.000000)" stroke-linecap="round" stroke="#000000" stroke-width="9.317">
            <g id="logo-lg" sketch:type="MSLayerGroup" transform="translate(473.000000, 192.000000)">
                <path d="M0.478847603,162.228651 C5.19694875,263.549499 77.6837983,304.50974 154.803142,304.50974 C274.254327,304.50974 304.195041,216.126964 304.493204,159.725838 C304.772081,106.96534 257.56272,-10.1063792 134.576323,0.64597927 C57.2283338,7.4082988 -3.67391146,73.0484791 0.478847603,162.228651 Z M45.7855106,157.568005 C45.7855106,157.568005 64.0463961,151.802046 74.7189909,166.717789 C80.1553297,174.315476 75.6050556,191.380429 84.20184,195.964507 C101.803232,205.350129 107.001849,192.375373 128.803949,196.229155 C149.255188,199.844403 152.780957,220.756287 180.751959,213.066595 C189.795946,210.580254 189.684911,198.008755 201.126049,191.961447 C212.567187,185.914139 228.674341,196.843888 240.885801,189.708814 C254.10047,181.987573 248.462698,179.751863 255.672736,165.857163 M176.959189,217.850546 C184.172336,227.907703 193.432033,258.857499 225.321342,248.1863 C262.740919,235.664494 234.514932,192.690853 234.514932,192.690853 M216.644162,216.863999 C212.377674,208.107066 210.161947,200.873189 203.679732,192.475066 M95.2559966,118.663391 C102.356965,156.645941 115.526763,151.163148 120.601003,149.092044 C125.675244,147.020941 133.754647,124.817564 130.031267,101.928023 C126.30876,79.0380472 125.98685,60.0880814 109.402047,60.0880814 C109.402047,60.0880814 84.8114962,62.7931695 95.2559966,118.663391 Z M201.870499,93.1235507 C201.870499,93.1235507 186.024303,92.2382334 188.75484,120.664921 C190.610854,139.990147 199.380532,138.479976 202.756373,137.918174 C206.132651,137.356371 212.501867,130.056851 211.737806,118.460759 C210.972871,106.864667 211.737806,93.1235507 202.756374,93.1235507" id="Imported-Layers" sketch:type="MSShapeGroup"></path>
            </g>
        </g>
    </g>
</svg>